<svg xmlns="http://www.w3.org/2000/svg" xmlns:xlink="http://www.w3.org/1999/xlink" id="Layer_1" x="0px" y="0px" viewBox="0 0 840 50" style="enable-background:new 0 0 840 50;" xml:space="preserve"><style type="text/css">	.st0{fill:#00273C;}	.st1{clip-path:url(#SVGID_00000179614462968208863220000011359866185176582817_);}	.st2{opacity:0.795;}	.st3{opacity:0.648;}	.st4{clip-path:url(#SVGID_00000161590975424665966030000017281986519381632150_);}	.st5{clip-path:url(#SVGID_00000127012184615710251790000008519068881962394754_);}</style><g id="Group_1466" transform="translate(78.994 46.666)">	<g id="Group_1465" transform="translate(0 0)">		<g id="Group_1464">			<path id="Path_101253" class="st0" d="M-34.71-8.59c-2.19,0-3.49-1.12-3.59-2.74h2.1c0,0.54,0.3,1.26,1.6,1.3     c0.9,0,1.4-0.54,1.4-0.94c-0.1-0.63-0.9-0.67-1.69-0.81c-0.72-0.08-1.42-0.26-2.1-0.54c-0.7-0.39-1.12-1.13-1.1-1.93     c0-1.44,1.2-2.56,3.29-2.56c2,0,3.29,1.03,3.39,2.6h-1.99c0-0.4-0.1-1.08-1.3-1.08c-0.8,0-1.3,0.13-1.4,0.72     c0,0.81,1.69,0.77,2.99,1.08c1.2,0.32,2,1.08,2,2.16C-31.12-9.36-32.71-8.59-34.71-8.59"></path>		</g>	</g></g><g id="Group_1467" transform="translate(10.126 28.679)">	<path id="Path_101254" class="st0" d="M-4.04-3.87l6.88-4l3.69,6.33h-9.28"></path></g><g id="Group_1468" transform="translate(38.926 46.635)">	<g id="Path_101255">		<path class="st0" d="M-18.37-8.8v-7.99"></path>		<rect x="-19.26" y="-16.8" class="st0" width="1.79" height="7.99"></rect>	</g></g><g id="Group_1471" transform="translate(0 46.693)">	<g id="Group_1470" transform="translate(0 0)">		<g id="Group_1469">			<path id="Path_101256" class="st0" d="M2.89-12.74c0.03,1.25,1.04,2.26,2.29,2.29c1.26,0.01,2.28-1,2.3-2.26     c0-0.01,0-0.02,0-0.03c-0.01-1.26-1.03-2.28-2.3-2.29C3.94-14.98,2.94-13.98,2.89-12.74 M5.09-8.61C2.83-8.64,1.01-10.48,1-12.74     c0.01-2.25,1.83-4.07,4.09-4.09c0.85-0.02,1.69,0.23,2.39,0.72v-0.63h2v7.95h-2v-0.49C6.77-8.82,5.94-8.58,5.09-8.61"></path>		</g>	</g></g><g id="Group_1472" transform="translate(42.087 0)">	<path id="Path_101257" class="st0" d="M-10.36,27.15l-9.57-16.7l6.88-4.04l11.97,20.74"></path></g><g id="Group_1475" transform="translate(18.264 41.422)">	<g id="Group_1474" transform="translate(0 0)">		<g id="Group_1473">			<path id="Path_101258" class="st0" d="M-6.19-7.47C-6.2-6.21-5.18-5.19-3.92-5.18c0.01,0,0.02,0,0.03,0     c1.25-0.03,2.26-1.03,2.29-2.29c-0.05-1.25-1.05-2.25-2.3-2.29C-5.16-9.75-6.18-8.73-6.19-7.47 M-4-3.34     c-2.25,0-4.09-1.82-4.09-4.08c0-0.02,0-0.04,0-0.05c-0.02-2.23,1.77-4.06,4-4.09c0.03,0,0.06,0,0.09,0     c0.85-0.02,1.69,0.23,2.39,0.72v-3.37h1.99v10.68H-1.6v-0.49C-2.32-3.56-3.15-3.32-4-3.34"></path>		</g>	</g></g><g id="Group_1476" transform="translate(26.206 14.569)">	<path id="Path_101259" class="st0" d="M-12.04,3.11l6.98-3.95l7.68,13.42h-7.28v1.98h-1.99v-1.98"></path></g><g id="Group_1482" transform="translate(42.481 41.402)">	<g id="Group_1481" transform="translate(0 0)">		<g id="Group_1477" transform="translate(46.249)">			<path id="Path_101260" class="st0" d="M-42.14-12.22c-0.54-0.02-0.98-0.45-1-0.99c0.02-0.54,0.46-0.97,1-0.99     c0.54-0.02,0.98,0.41,1,0.94c0,0.02,0,0.03,0,0.05c0.01,0.54-0.41,0.98-0.95,0.99C-42.11-12.21-42.13-12.21-42.14-12.22      M-42.14-14.05c-0.44,0-0.8,0.36-0.8,0.81c0,0.01,0,0.03,0,0.04c-0.03,0.44,0.31,0.82,0.75,0.85c0.02,0,0.03,0,0.05,0     c0.44,0,0.8-0.37,0.8-0.81c0-0.01,0-0.03,0-0.04c0.03-0.44-0.31-0.82-0.75-0.85C-42.11-14.05-42.13-14.05-42.14-14.05"></path>		</g>		<g id="Group_1478" transform="translate(47.553 0.901)">			<path id="Path_101261" class="st0" d="M-43.24-13.56l-0.2-0.45h-0.2v0.45h-0.15v-1.08h0.45c0.16,0.03,0.28,0.15,0.3,0.32     c0.01,0.14-0.07,0.26-0.2,0.31l0.2,0.45 M-43.45-14.5h-0.2v0.36h0.2c0.2,0,0.2-0.04,0.2-0.18C-43.24-14.42-43.24-14.5-43.45-14.5     "></path>		</g>		<g id="Group_1479" transform="translate(18.25 5.291)">			<path id="Path_101262" class="st0" d="M-27.32-12.74c-0.01,1.26,1.01,2.28,2.27,2.29c0.01,0,0.02,0,0.03,0     c1.25-0.03,2.26-1.04,2.29-2.29c-0.04-1.25-1.05-2.25-2.29-2.29C-26.29-15.02-27.31-14-27.32-12.74 M-25.13-8.61     c-2.25,0-4.08-1.82-4.09-4.08c0-0.02,0-0.04,0-0.05c-0.02-2.23,1.77-4.06,4-4.09c0.03,0,0.06,0,0.08,0     c0.85-0.02,1.69,0.23,2.39,0.72v-0.63h1.9v7.95h-1.9v-0.49C-23.45-8.83-24.28-8.59-25.13-8.61"></path>		</g>		<g id="Group_1480" transform="translate(0 0.021)">			<path id="Path_101263" class="st0" d="M-18.24-7.47c0.03,1.25,1.04,2.26,2.3,2.29c1.26,0.01,2.29-1,2.29-2.26     c0-0.01,0-0.02,0-0.03c-0.01-1.26-1.03-2.28-2.3-2.29C-17.19-9.72-18.2-8.72-18.24-7.47 M-13.65-14.2h1.99v10.68h-1.99v-0.49     c-0.67,0.47-1.48,0.7-2.3,0.68c-2.3,0.01-4.17-1.83-4.19-4.13c0.02-2.28,1.89-4.11,4.17-4.09c0.01,0,0.01,0,0.02,0     c0.83-0.03,1.64,0.22,2.3,0.72V-14.2z"></path>		</g>	</g></g><g id="_2" transform="translate(0)">	<g id="g74" transform="translate(0 0)">		<g>			<defs>				<rect id="SVGID_1_" x="73.76" y="5.93" width="142.39" height="37.97"></rect>			</defs>			<clipPath id="SVGID_00000075845879879218349820000008655529007435582377_">				<use xlink:href="#SVGID_1_" style="overflow:visible;"></use>			</clipPath>			<g id="g76" transform="translate(0)" style="clip-path:url(#SVGID_00000075845879879218349820000008655529007435582377_);">				<g id="g82" transform="translate(75.751 16.355)">					<path id="path84" class="st0" d="M119.43,9.88c0-0.27,0.06-0.53,0.17-0.78c0.11-0.27,0.28-0.52,0.48-0.72       c0.23-0.23,0.5-0.42,0.8-0.55c0.35-0.15,0.73-0.22,1.12-0.22c0.38-0.01,0.75,0.06,1.09,0.22c0.29,0.13,0.55,0.32,0.76,0.55       c0.2,0.21,0.35,0.46,0.46,0.72c0.1,0.25,0.15,0.51,0.15,0.78L119.43,9.88z M126.16,13.49c-0.41,0.28-0.84,0.52-1.3,0.73       c-0.73,0.31-1.52,0.45-2.31,0.42c-0.82,0.05-1.63-0.21-2.27-0.73c-0.52-0.41-0.83-1.03-0.85-1.69h8.49v-0.61       c0.01-0.93-0.12-1.86-0.38-2.76c-0.23-0.79-0.61-1.52-1.13-2.16c-0.5-0.6-1.13-1.08-1.84-1.41c-0.8-0.35-1.67-0.53-2.54-0.51       c-0.89-0.02-1.78,0.16-2.59,0.52c-0.73,0.33-1.39,0.8-1.93,1.38c-0.53,0.59-0.94,1.27-1.21,2.02c-0.28,0.77-0.42,1.58-0.42,2.4       c-0.01,0.89,0.14,1.77,0.44,2.61c0.28,0.76,0.72,1.45,1.3,2.02c0.59,0.58,1.3,1.02,2.07,1.31c0.88,0.32,1.81,0.48,2.75,0.47       c0.68,0.01,1.37-0.06,2.03-0.22c0.53-0.12,1.04-0.29,1.54-0.49c0.37-0.15,0.72-0.34,1.05-0.57c0.27-0.19,0.48-0.33,0.61-0.42       L126.16,13.49z M85.65,13.92c-0.24,0.17-0.49,0.32-0.76,0.44c-0.3,0.13-0.63,0.2-0.97,0.19c-0.42,0.03-0.82-0.14-1.08-0.47       c-0.25-0.4-0.37-0.86-0.34-1.33v-4.7h3.08V5.18H82.5V1.99h-3.66v3.19h-1.89v2.87h1.89v4.5c-0.01,0.68,0.07,1.37,0.23,2.03       c0.13,0.57,0.39,1.11,0.76,1.56c0.38,0.45,0.86,0.8,1.4,1.02c0.68,0.26,1.41,0.39,2.14,0.37c1.38-0.01,2.71-0.49,3.76-1.37       L85.65,13.92z M117.34,0.94c-0.52-0.45-1.14-0.78-1.8-0.97c-0.64-0.18-1.3-0.28-1.96-0.28c-0.61,0-1.22,0.1-1.79,0.29       c-0.58,0.19-1.11,0.49-1.56,0.89c-0.47,0.42-0.85,0.93-1.1,1.51c-0.3,0.69-0.44,1.43-0.42,2.18v0.61h-1.93v2.87h1.93v9.05h3.63       V8.05h2.82V5.18h-2.82V4.52c-0.03-0.5,0.13-0.99,0.46-1.37c0.32-0.33,0.76-0.5,1.22-0.48c0.32,0,0.64,0.05,0.94,0.15       c0.3,0.1,0.58,0.25,0.84,0.43L117.34,0.94z M101.25,17.1h3.66V5.18h-3.66V17.1z M88.5,17.1h11.15v-3.14h-7.31V0.15H88.5       L88.5,17.1z M67.59,9.88c0-0.27,0.06-0.53,0.17-0.78c0.11-0.27,0.28-0.51,0.48-0.72c0.23-0.23,0.5-0.42,0.8-0.55       c0.35-0.15,0.73-0.22,1.12-0.22c0.38-0.01,0.75,0.06,1.09,0.22c0.29,0.13,0.55,0.32,0.76,0.55c0.2,0.21,0.35,0.46,0.46,0.72       c0.1,0.25,0.15,0.51,0.15,0.78H67.59z M74.33,13.49c-0.41,0.28-0.84,0.52-1.3,0.73c-0.73,0.31-1.52,0.45-2.31,0.42       c-0.82,0.05-1.63-0.21-2.27-0.73c-0.52-0.41-0.83-1.03-0.85-1.69h8.49v-0.61c0.01-0.93-0.12-1.86-0.38-2.76       c-0.23-0.79-0.61-1.52-1.13-2.16c-0.5-0.6-1.13-1.08-1.84-1.41c-0.8-0.35-1.67-0.53-2.54-0.51c-0.89-0.02-1.78,0.16-2.59,0.52       c-0.73,0.33-1.39,0.8-1.93,1.39c-0.53,0.59-0.94,1.27-1.2,2.02c-0.28,0.77-0.42,1.58-0.42,2.4c-0.01,0.89,0.14,1.77,0.44,2.61       c0.28,0.76,0.72,1.45,1.3,2.02c0.59,0.57,1.3,1.02,2.07,1.31c0.88,0.32,1.81,0.48,2.75,0.47c0.68,0.01,1.37-0.06,2.03-0.22       c0.53-0.12,1.04-0.29,1.54-0.49c0.37-0.15,0.72-0.34,1.05-0.57c0.27-0.2,0.47-0.33,0.61-0.42L74.33,13.49z M44.87,17.1h3.66       l0.43-11.01l3.71,6.53h1.98l3.51-6.61l0.48,11.08h3.84L61.69,0.15h-3.66L53.71,8.1l-4.42-7.95h-3.63L44.87,17.1z M103.08,3.82       c-1.14-0.01-2.06-0.93-2.06-2.06c0.01-1.14,0.93-2.06,2.06-2.06c1.13-0.01,2.05,0.89,2.06,2.02c0,0.01,0,0.03,0,0.04       C105.14,2.89,104.22,3.81,103.08,3.82"></path>				</g>				<g id="g86" transform="translate(39.28 9.677)">					<path id="path88" class="st0" d="M58.78,10.56c2.98,3.95,4.6,8.76,4.59,13.71c0,1.22-0.1,2.44-0.29,3.65h8.34       c0.73,0,1.31-0.59,1.31-1.32v0V3.56c0-0.72-0.58-1.31-1.31-1.32c-0.11,0-0.22,0.01-0.33,0.04C66.17,3.58,61.84,6.5,58.78,10.56       "></path>				</g>				<g id="g90" transform="translate(16.742 9.678)" class="st2">					<path id="path92" class="st0" d="M77.02,27.91c-0.19-1.21-0.29-2.43-0.29-3.65c-0.01-4.95,1.6-9.76,4.59-13.71       c-3.06-4.06-7.39-6.97-12.3-8.28c-0.7-0.18-1.42,0.24-1.6,0.94c-0.03,0.11-0.04,0.22-0.04,0.33V26.6       c0,0.73,0.59,1.31,1.31,1.32L77.02,27.91z"></path>				</g>				<g id="g94" transform="translate(31.865 23.128)" class="st3">					<path id="path96" class="st0" d="M66.19-2.89c-3.74,4.96-5.29,11.23-4.29,17.36h8.59c0.19-1.21,0.29-2.43,0.29-3.65       C70.79,5.87,69.18,1.05,66.19-2.89"></path>				</g>			</g>		</g>	</g></g><g>	<path id="path3209" class="st0" d="M357.08,13.72c-0.03,1.07-0.92,1.91-1.98,1.88c-1.07-0.03-1.91-0.92-1.88-1.98   c0.03-1.05,0.88-1.88,1.93-1.88C356.23,11.75,357.1,12.64,357.08,13.72z"></path>	<rect id="rect3211" x="386.55" y="22.43" class="st0" width="4.92" height="5.02"></rect>	<rect id="rect3213" x="288.93" y="22.43" class="st0" width="4.92" height="5.02"></rect>	<rect id="rect3215" x="274.17" y="22.43" class="st0" width="4.92" height="5.02"></rect>	<rect id="rect3217" x="259.63" y="22.43" class="st0" width="4.92" height="5.02"></rect>	<rect id="rect3219" x="244.57" y="22.43" class="st0" width="4.92" height="5.02"></rect>	<path id="path3221" class="st0" d="M256.39,12.41h0.58c3.77,0,5.53,2.02,6.26,7.4l1.17-0.05l-0.16-8.54h-19.19l-0.19,8.54   l1.12,0.05c0.06-1.44,0.37-2.86,0.93-4.19c0.87-2.01,2.88-3.28,5.06-3.21h0.82v18.57c0,1.97-0.12,2.59-0.58,3.05   c-0.61,0.4-1.34,0.58-2.06,0.52h-0.9v1.24h10.67v-1.24h-0.9c-0.73,0.07-1.45-0.12-2.06-0.52c-0.47-0.47-0.58-1.09-0.58-3.05   L256.39,12.41"></path>	<path id="path3223" class="st0" d="M307.16,35.8l6.22-21.7v17.03c0,1.86-0.11,2.51-0.53,2.96c-0.54,0.39-1.2,0.57-1.86,0.5h-0.32   v1.2h8.79v-1.21H319c-0.66,0.07-1.33-0.11-1.86-0.5c-0.42-0.45-0.53-1.1-0.53-2.96V16.61c0-1.86,0.11-2.56,0.53-3.01   c0.55-0.36,1.2-0.54,1.86-0.5h0.46v-1.16h-6.82l-5.13,17.53l-5.02-17.53h-6.79v1.16h0.63c1.86,0,2.22,0.4,2.22,2.81v13.81   c0,2.21-0.11,3.11-0.42,3.77c-0.38,0.67-1.09,1.1-1.86,1.1h-0.56v1.2h7.24v-1.2h-0.46c-0.83,0.05-1.63-0.35-2.08-1.05   c-0.42-0.7-0.52-1.36-0.52-3.82V14.09l6.18,21.7L307.16,35.8"></path>	<path id="path3225" class="st0" d="M327.02,18.82c-4.36,0-7.21,3.42-7.21,8.79c0,5.17,2.85,8.69,7.1,8.69   c4.29,0,7.14-3.52,7.14-8.74C334.05,22.38,331.2,18.82,327.02,18.82 M326.88,19.97c1.33,0.05,2.5,0.91,2.95,2.16   c0.56,1.26,0.81,2.96,0.81,5.42c0,5.07-1.23,7.58-3.73,7.58c-2.5,0-3.69-2.51-3.69-7.63c0-2.41,0.25-4.12,0.81-5.37   C324.48,20.92,325.59,20.07,326.88,19.97"></path>	<path id="path3227" class="st0" d="M339.89,11.69l-4.99,0.25v1.1h0.24c1.48,0,1.8,0.5,1.8,2.86v16.32c0,2.11-0.07,2.66-0.35,3.57   h1.16c0.87-1.46,1.09-1.71,1.44-1.71c0.23,0.01,0.45,0.12,0.59,0.3c1.73,1.41,2.47,1.71,4.05,1.71c3.79,0,6.53-3.67,6.53-8.89   c0-4.92-2.54-8.24-6.33-8.24c-1.81-0.09-3.47,0.98-4.14,2.66L339.89,11.69 M343.54,20.22c2.26,0,3.42,2.41,3.42,7.13   c0,4.97-1.2,7.53-3.48,7.53c-2.53,0-3.86-2.61-3.86-7.38c0-2.41,0.32-4.07,1.06-5.32C341.21,21.06,342.3,20.32,343.54,20.22"></path>	<path id="path3229" class="st0" d="M356.87,19.07l-5.13,0.3v1.1h0.39c1.47,0,1.79,0.5,1.79,2.81v8.49c0,2.31-0.32,2.86-1.79,2.86   h-0.56v1.15h7.66v-1.15h-0.55c-1.48,0-1.8-0.5-1.8-2.86L356.87,19.07"></path>	<path id="path3231" class="st0" d="M365.76,11.69l-5.13,0.25v1.1h0.38c1.48,0,1.79,0.5,1.79,2.86v15.87c0,2.36-0.32,2.86-1.79,2.86   h-0.56v1.15h7.66v-1.15h-0.56c-1.48,0-1.79-0.5-1.79-2.86V11.69"></path>	<path id="path3233" class="st0" d="M382.11,27.46c-0.17-5.32-2.7-8.64-6.53-8.64c-3.7,0-6.36,3.62-6.36,8.64   c0,5.37,2.63,8.84,6.71,8.84c2.64,0,4.47-1.41,5.98-4.52l-1.05-0.55c-1.23,2.61-2.46,3.67-4.36,3.67c-2.78,0-3.97-2.21-4-7.43   H382.11 M372.52,26.2c0.03-3.77,1.26-6.13,3.23-6.13c1.97,0,3.13,2.31,3.09,6.13H372.52"></path>	<g id="g3235" transform="translate(210.042 10.276)">		<g id="g3237">			<path id="path3239" class="st0" d="M183.28,8.13c0.3,0,0.6,0.08,0.87,0.23c0.28,0.15,0.51,0.38,0.66,0.65     c0.31,0.55,0.31,1.22,0,1.77c-0.15,0.28-0.38,0.5-0.65,0.66c-0.55,0.31-1.22,0.31-1.76,0c-0.28-0.15-0.5-0.38-0.65-0.66     c-0.32-0.55-0.32-1.22,0-1.77c0.15-0.28,0.38-0.5,0.66-0.65C182.67,8.21,182.97,8.13,183.28,8.13z M183.28,8.43     c-0.25,0-0.5,0.07-0.72,0.19c-0.23,0.12-0.42,0.31-0.55,0.55c-0.26,0.45-0.26,1.01,0,1.47c0.13,0.23,0.32,0.42,0.55,0.55     c0.45,0.26,1.01,0.26,1.47,0c0.23-0.13,0.42-0.32,0.55-0.55c0.26-0.45,0.26-1.01,0-1.47c-0.13-0.23-0.32-0.42-0.55-0.55     C183.78,8.49,183.53,8.43,183.28,8.43z M182.5,10.88v-1.9h0.66c0.16-0.01,0.33,0.01,0.49,0.05c0.1,0.03,0.18,0.1,0.24,0.18     c0.06,0.08,0.09,0.18,0.09,0.28c0,0.14-0.05,0.27-0.15,0.36c-0.11,0.11-0.25,0.17-0.4,0.17c0.06,0.02,0.11,0.06,0.16,0.1     c0.11,0.12,0.2,0.24,0.28,0.38l0.23,0.37h-0.38l-0.17-0.3c-0.08-0.16-0.19-0.31-0.32-0.44c-0.07-0.05-0.16-0.07-0.25-0.07h-0.18     v0.81L182.5,10.88L182.5,10.88z M182.81,9.81h0.37c0.13,0.01,0.26-0.02,0.37-0.08c0.11-0.09,0.13-0.25,0.05-0.36     c-0.03-0.05-0.08-0.08-0.13-0.1c-0.1-0.03-0.21-0.04-0.31-0.03h-0.35L182.81,9.81z"></path>		</g>	</g></g><g id="_4" transform="translate(0 0)">	<g id="g20441" transform="translate(0 0)">		<path id="path13762" class="st0" d="M495.5,28.64c-0.77-0.4-0.9-1.55-0.88-4.33l0.02-4.26h-1.48l0.34-0.79h1.14v-2.02l2.72-1.01    v2.96h1.26l-0.33,0.87h-0.93v7.37c0.01,0.45,0.2,0.88,0.53,1.2H495.5"></path>		<path id="path13764" class="st0" d="M455.22,35.4c-0.06-0.23-0.28-0.39-0.52-0.39c-0.36,0-0.5,0.19-0.5,0.44    c0,0.61,1.38,0.5,1.38,1.54c-0.04,0.59-0.55,1.04-1.14,1c-0.02,0-0.04,0-0.07-0.01c-0.25,0-0.51-0.06-0.72-0.19    c0.05-0.19,0.1-0.38,0.14-0.57h0.09c0.05,0.3,0.32,0.51,0.62,0.5c0.27,0.03,0.5-0.17,0.53-0.43c0-0.01,0-0.03,0-0.04    c0-0.72-1.36-0.46-1.36-1.55c-0.01-0.52,0.41-0.95,0.93-0.96c0.04,0,0.08,0,0.12,0.01c0.25-0.01,0.5,0.07,0.71,0.22    c-0.05,0.14-0.09,0.29-0.14,0.45L455.22,35.4"></path>		<path id="path13766" class="st0" d="M468.7,10.42c0.21,0.57,0.69,1.16,0.34,1.82c-0.19,0.69-0.76,1.2-1.46,1.32    c-0.67,0.1-1.35-0.08-1.89-0.48c-0.37-1.85,0.4-3.74,1.96-4.8L468.7,10.42"></path>		<g>			<defs>				<rect id="SVGID_00000026865032452008157400000003752004361138819515_" x="438.3" y="7.52" width="61.88" height="30.46"></rect>			</defs>			<clipPath id="SVGID_00000023973925695953756830000004956661442412618887_">				<use xlink:href="#SVGID_00000026865032452008157400000003752004361138819515_" style="overflow:visible;"></use>			</clipPath>			<g id="g13772" style="clip-path:url(#SVGID_00000023973925695953756830000004956661442412618887_);">				<path id="path13774" class="st0" d="M471.4,16.33c-0.34,1.17-3.8,0.4-4.89-1.52c1.43,0.16,3.03-1.11,3.06-2.55L471.4,16.33"></path>			</g>		</g>		<g>			<defs>				<rect id="SVGID_00000165217941098723138570000011223328878199538076_" x="438.3" y="7.52" width="61.88" height="30.46"></rect>			</defs>			<clipPath id="SVGID_00000044167753518895135430000009495984292205813901_">				<use xlink:href="#SVGID_00000165217941098723138570000011223328878199538076_" style="overflow:visible;"></use>			</clipPath>			<g id="g13780" style="clip-path:url(#SVGID_00000044167753518895135430000009495984292205813901_);">				<path id="path13782" class="st0" d="M472.83,16.18c0.26-0.1,0.46-0.3,0.55-0.57l-3.72-8.09c-0.27-0.06-0.54,0-0.76,0.17      L472.83,16.18"></path>			</g>		</g>		<path id="path13784" class="st0" d="M474.5,14.42c1.3-2.18,0.59-5-1.58-6.31c-0.49-0.29-1.02-0.49-1.58-0.59L474.5,14.42"></path>		<path id="path13786" class="st0" d="M438.3,32.61h59.8v-0.46h-59.8V32.61z"></path>		<path id="path13788" class="st0" d="M457.65,36.31c-0.01-0.18-0.15-0.32-0.33-0.32c-0.17,0.01-0.31,0.15-0.3,0.33    c0.01,0.17,0.14,0.3,0.3,0.3C457.5,36.62,457.64,36.48,457.65,36.31"></path>		<path id="path13790" class="st0" d="M474.15,19.59c0.57-0.39,1.31-0.46,1.94-0.16c0.24,0.11,0.45,0.28,0.62,0.49l-1.1,1.71    c-0.13-0.1-0.27-0.18-0.41-0.25c-0.48-0.22-1.04-0.14-1.45,0.2v4.98c-0.02,0.86,0.14,1.65,0.59,2.06h-2.5    c-0.46-0.41-0.71-0.99-0.71-1.6l-0.02-6.63c0.03-0.39-0.09-0.77-0.33-1.07l2.58,0.01c0.21,0.15,0.22,0.41,0.33,0.61L474.15,19.59"></path>		<path id="path13792" class="st0" d="M477.3,21.23c-0.02-0.63,0.12-1.38-0.29-1.93h2.39c0.16,0.13,0.27,0.31,0.31,0.51    c0.1,0.19,0.16,0.4,0.17,0.61l0.03,7.06c0.08,0.44,0.27,0.84,0.57,1.17l-2.56,0.01c-0.84-0.81-0.57-2.15-0.64-3.53L477.3,21.23"></path>		<path id="path13794" class="st0" d="M481.11,21.3c0.26-0.72,1.07-1.08,1.65-1.47c0.9-0.33,1.89-1.15,2.89-0.48    c0.85,0.51,1.57,1.2,2.12,2.02c0.11,0.34,0.2,0.69,0.28,1.05c0,0.47,0.1,0.82,0.09,1.29c0.03,0.49,0.03,0.98,0,1.47    c-0.04,0.85-0.44,1.65-1.1,2.2c-1,0.89-2.26,1.9-3.61,1.21c-1.22-0.57-2.65-1.7-2.56-3.25c-0.09-1.04-0.07-2.08,0.05-3.12    C480.91,21.9,480.98,21.59,481.11,21.3z M483.6,26.29c0.12,0.44,0.34,0.98,0.88,1.04c0.31,0.01,0.53-0.25,0.72-0.47    c0.55-1.1,0.46-2.3,0.46-3.55c-0.17-0.93,0.05-2.2-0.95-2.77c-0.36-0.13-0.62,0.11-0.84,0.33c-0.34,0.61-0.5,1.31-0.46,2.01    C483.33,24.03,483.4,25.17,483.6,26.29"></path>		<path id="path13796" class="st0" d="M489.91,28.64c-0.77-0.4-0.9-1.55-0.88-4.33l0.02-4.26h-1.46l0.33-0.79h1.14v-2.02l2.74-1.01    v2.96h1.24l-0.33,0.87h-0.91v7.37c0.01,0.45,0.2,0.88,0.53,1.2H489.91"></path>		<path id="path13798" class="st0" d="M464.98,20.39c0.02-0.38-0.1-0.76-0.33-1.07l2.58,0.01c0.21,0.15,0.22,0.41,0.33,0.61    l0.45-0.35c0.57-0.39,1.31-0.46,1.94-0.16c0.24,0.11,0.45,0.28,0.62,0.49l-1.1,1.71c-0.13-0.1-0.27-0.18-0.41-0.25    c-0.48-0.22-1.04-0.14-1.45,0.2v4.98c-0.02,0.86,0.14,1.65,0.58,2.06h-2.5c-0.46-0.4-0.72-0.99-0.71-1.6L464.98,20.39"></path>		<path id="path13800" class="st0" d="M445.41,23.02l-0.93,1.94c-0.65,1.14-1.55,2.54-2.93,2.89c-0.51,0.1-1.03,0.1-1.53-0.02    l-1.67,2.73c0.14,0.14,0.3,0.24,0.48,0.31c2.93,1.12,4.11-0.08,6.99-6.61l2.74,5.81h3.63l-1.72-3.92l0.98-2.03l2.69,5.86    l3.48,0.02l-6.1-13.37l-2.81,1.39l2.2,4.99l-0.97,1.96l-4.03-8.69l-2.94,1.5L445.41,23.02"></path>		<path id="path13802" class="st0" d="M456.58,25.37c0.06-0.99,0.63-1.89,1.5-2.37c0.9-0.55,1.93-0.77,2.86-1.25    c0.18-0.11,0.31-0.29,0.36-0.5c0.02-0.24-0.12-0.47-0.34-0.55c-1.41-0.3-2.56,0.58-3.58,1.45c0.08-0.67,0.26-1.32,0.53-1.94    c0.12-0.19,0.26-0.36,0.43-0.5c1.05-0.47,2.2-0.66,3.34-0.55c0.92,0.08,1.72,0.68,2.07,1.54c0.12,0.4,0.17,0.81,0.17,1.23    l0.02,5.41c0.03,0.47,0.2,0.92,0.5,1.29h-2.58c-0.3-0.28-0.49-0.66-0.55-1.07c-0.72,0.64-2.24,1.59-3.13,0.96    C457.04,27.89,456.42,26.65,456.58,25.37z M461.16,23.49c-0.02-0.38-0.28-0.41-0.46-0.41c-0.63,0.15-1.16,0.56-1.46,1.14    c-0.22,0.39-0.34,0.84-0.34,1.29c-0.05,0.38,0,0.77,0.16,1.12c0.11,0.2,0.31,0.34,0.53,0.38c0.37,0.07,0.76-0.02,1.07-0.24    c0.74-0.41,0.6-1.23,0.62-1.96L461.16,23.49"></path>		<path id="path13804" class="st0" d="M481.19,36.31c-0.01-0.18-0.15-0.32-0.33-0.32c-0.17,0.01-0.31,0.15-0.3,0.33    c0.01,0.17,0.14,0.3,0.3,0.3C481.04,36.62,481.19,36.48,481.19,36.31"></path>		<path id="path13806" class="st0" d="M459.52,34.81h0.97c0.25-0.02,0.5,0.01,0.74,0.09c0.25,0.12,0.4,0.37,0.38,0.65    c0.01,0.41-0.3,0.77-0.71,0.81c0.26,0.43,0.53,0.85,0.81,1.27l0.17,0.28c-0.14-0.01-0.28-0.02-0.41-0.02    c-0.14,0-0.26,0.01-0.4,0.02l-0.55-0.95c-0.07-0.12-0.19-0.33-0.29-0.5h-0.03v1.45c-0.1-0.01-0.22-0.02-0.33-0.02    c-0.12,0-0.22,0.01-0.34,0.02L459.52,34.81z M460.19,36.27c0.48,0.04,0.72-0.18,0.72-0.65c-0.01-0.08-0.02-0.15-0.03-0.23    c-0.07-0.38-0.41-0.34-0.69-0.34L460.19,36.27"></path>		<path id="path13808" class="st0" d="M464.29,34.81c-0.02,0.06-0.03,0.13-0.03,0.19c0,0.07,0.01,0.13,0.03,0.19    c-0.35-0.05-0.7-0.07-1.05-0.06v0.97h0.46c0.19,0,0.38-0.01,0.57-0.04c-0.02,0.06-0.03,0.13-0.03,0.19c0,0.07,0.01,0.13,0.03,0.19    c-0.19-0.03-0.38-0.04-0.57-0.04h-0.46v1.15c0.35,0,0.7-0.02,1.05-0.06c-0.02,0.06-0.03,0.13-0.03,0.19    c0,0.07,0.01,0.13,0.03,0.19h-1.74v-3.08H464.29"></path>		<path id="path13810" class="st0" d="M466.49,35.4c-0.07-0.23-0.29-0.39-0.53-0.39c-0.34,0-0.5,0.19-0.5,0.44    c0,0.61,1.38,0.5,1.38,1.54c-0.03,0.58-0.53,1.03-1.11,1c-0.03,0-0.05,0-0.08-0.01c-0.26,0.01-0.51-0.06-0.72-0.19    c0.06-0.19,0.1-0.38,0.12-0.57h0.09c0.05,0.3,0.32,0.51,0.62,0.5c0.26,0.03,0.5-0.15,0.53-0.41c0-0.02,0-0.04,0-0.06    c0-0.72-1.34-0.46-1.34-1.55c-0.01-0.52,0.4-0.94,0.91-0.96c0.05,0,0.09,0,0.14,0.01c0.25,0,0.5,0.07,0.71,0.22    c-0.05,0.15-0.1,0.3-0.14,0.45L466.49,35.4"></path>		<path id="path13812" class="st0" d="M469.08,37.98c-0.84,0.08-1.58-0.53-1.67-1.37c-0.01-0.08-0.01-0.16,0-0.25    c0-0.9,0.72-1.63,1.62-1.64c0.06,0,0.11,0,0.17,0.01c0.84-0.08,1.58,0.53,1.67,1.37c0.01,0.08,0.01,0.16,0,0.24    c-0.01,0.91-0.75,1.65-1.66,1.64C469.16,37.98,469.12,37.98,469.08,37.98z M468.16,36.49c0,0.59,0.26,1.21,0.95,1.21    c0.69,0,1-0.7,1-1.45c0-0.58-0.28-1.25-0.95-1.25C468.54,35,468.16,35.48,468.16,36.49"></path>		<path id="path13814" class="st0" d="M471.62,34.81h0.97c0.25-0.02,0.49,0.01,0.72,0.09c0.25,0.11,0.41,0.37,0.4,0.65    c0,0.41-0.3,0.76-0.71,0.81c0.26,0.43,0.53,0.85,0.81,1.27l0.17,0.28c-0.14-0.01-0.28-0.02-0.41-0.02c-0.14,0-0.28,0.01-0.41,0.02    l-0.53-0.95c-0.07-0.12-0.19-0.33-0.29-0.5h-0.03v1.45c-0.12-0.01-0.22-0.02-0.34-0.02c-0.1,0-0.22,0.01-0.33,0.02L471.62,34.81z     M472.3,36.27c0.48,0.04,0.71-0.18,0.71-0.65c0-0.08,0-0.15-0.02-0.23c-0.07-0.38-0.41-0.34-0.69-0.34V36.27"></path>		<path id="path13816" class="st0" d="M475.91,37.92c-0.1-0.01-0.22-0.02-0.34-0.02c-0.1,0-0.22,0.01-0.33,0.02v-2.78    c-0.28,0-0.56,0.02-0.84,0.06c0-0.06,0.02-0.13,0.02-0.19c0-0.07-0.02-0.13-0.02-0.19h2.32c0,0.06-0.02,0.13-0.02,0.19    c0,0.07,0.02,0.13,0.02,0.19c-0.27-0.04-0.54-0.06-0.81-0.06L475.91,37.92"></path>		<path id="path13818" class="st0" d="M478.84,35.4c-0.06-0.23-0.28-0.39-0.52-0.39c-0.36,0-0.5,0.19-0.5,0.44    c0,0.61,1.38,0.5,1.38,1.54c-0.04,0.59-0.55,1.04-1.14,1c-0.02,0-0.04,0-0.07-0.01c-0.25,0-0.51-0.06-0.72-0.19    c0.05-0.19,0.1-0.38,0.14-0.57h0.09c0.05,0.3,0.32,0.51,0.62,0.5c0.26,0.03,0.49-0.16,0.51-0.42c0-0.02,0-0.03,0-0.05    c0-0.72-1.34-0.46-1.34-1.55c-0.01-0.52,0.41-0.95,0.93-0.96c0.04,0,0.08,0,0.12,0.01c0.25-0.01,0.5,0.07,0.71,0.22    c-0.05,0.14-0.09,0.29-0.14,0.45L478.84,35.4"></path>		<path id="path13820" class="st0" d="M484.4,35.4c-0.07-0.23-0.29-0.39-0.53-0.39c-0.34,0-0.5,0.19-0.5,0.44    c0,0.61,1.38,0.5,1.38,1.54c-0.03,0.58-0.53,1.03-1.11,1c-0.03,0-0.05,0-0.08-0.01c-0.26,0.01-0.51-0.06-0.72-0.19    c0.05-0.19,0.09-0.38,0.12-0.57h0.09c0.05,0.3,0.32,0.51,0.62,0.5c0.26,0.03,0.5-0.15,0.53-0.41c0-0.02,0-0.04,0-0.06    c0-0.72-1.34-0.46-1.34-1.55c-0.01-0.52,0.4-0.95,0.92-0.95c0.04,0,0.07,0,0.11,0c0.26-0.01,0.51,0.07,0.72,0.22    c-0.05,0.15-0.1,0.3-0.14,0.45L484.4,35.4"></path>		<path id="path13822" class="st0" d="M485.55,34.81c0.12,0.01,0.22,0.02,0.34,0.02c0.12,0,0.22-0.01,0.34-0.02v1.29    c-0.01,0.29,0,0.57,0.03,0.86c0.01,0.19,0.09,0.38,0.22,0.52c0.15,0.13,0.34,0.2,0.53,0.19c0.36,0.04,0.7-0.2,0.79-0.55    c0.07-0.31,0.1-0.62,0.09-0.94v-1.37c0.06,0.01,0.11,0.01,0.17,0.01c0.06,0,0.13,0,0.19-0.01v1.61c-0.02,0.52,0,0.99-0.48,1.31    c-0.25,0.17-0.56,0.25-0.86,0.24c-0.53,0-1.14-0.17-1.29-0.76c-0.05-0.18-0.08-0.37-0.09-0.56L485.55,34.81"></path>		<path id="path13824" class="st0" d="M489.34,34.81c0.12,0.01,0.24,0.02,0.34,0.02c0.12,0,0.22-0.01,0.34-0.02v3.11    c-0.12-0.01-0.22-0.02-0.34-0.02c-0.1,0-0.22,0.01-0.34,0.02V34.81"></path>		<path id="path13826" class="st0" d="M492.31,37.92c-0.12-0.01-0.24-0.02-0.34-0.02c-0.12,0-0.22,0.01-0.34,0.02v-2.78    c-0.28,0-0.56,0.02-0.84,0.06c0.05-0.12,0.05-0.26,0-0.39h2.34c-0.05,0.12-0.05,0.26,0,0.39c-0.27-0.04-0.54-0.06-0.81-0.06    L492.31,37.92"></path>		<path id="path13828" class="st0" d="M495.55,34.81c-0.01,0.06-0.02,0.13-0.02,0.19c0,0.06,0,0.13,0.02,0.19    c-0.35-0.05-0.7-0.07-1.05-0.06v0.97h0.46c0.19,0,0.38-0.02,0.57-0.04c-0.02,0.13-0.02,0.26,0,0.39    c-0.19-0.03-0.38-0.04-0.57-0.04h-0.46v1.15c0.35,0,0.7-0.02,1.05-0.06c-0.01,0.06-0.02,0.13-0.02,0.19c0,0.06,0,0.13,0.02,0.19    h-1.72v-3.08H495.55"></path>		<path id="path13830" class="st0" d="M497.75,35.4c-0.06-0.23-0.28-0.39-0.52-0.39c-0.36,0-0.5,0.19-0.5,0.44    c0,0.61,1.38,0.5,1.38,1.54c-0.04,0.59-0.55,1.04-1.14,1c-0.02,0-0.04,0-0.07-0.01c-0.25,0-0.51-0.06-0.72-0.19    c0.06-0.19,0.1-0.38,0.12-0.57h0.09c0.06,0.3,0.33,0.51,0.64,0.5c0.26,0.03,0.49-0.16,0.51-0.42c0-0.02,0-0.03,0-0.05    c0-0.72-1.34-0.46-1.34-1.55c-0.01-0.52,0.41-0.95,0.93-0.96c0.04,0,0.08,0,0.12,0.01c0.25-0.01,0.5,0.07,0.71,0.22    c-0.05,0.14-0.09,0.29-0.14,0.45L497.75,35.4"></path>		<path id="path13832" class="st0" d="M438.39,34.81c0.12,0.01,0.22,0.02,0.34,0.02c0.1,0,0.22-0.01,0.34-0.02v1.23    c0.22,0.01,0.46,0.02,0.69,0.02s0.46-0.01,0.69-0.02v-1.23c0.12,0.01,0.22,0.02,0.34,0.02c0.1,0,0.22-0.01,0.34-0.02v3.11    c-0.12-0.01-0.24-0.02-0.34-0.02c-0.12,0-0.22,0.01-0.34,0.02V36.4c-0.22-0.01-0.46-0.02-0.69-0.02s-0.46,0.01-0.69,0.02v1.52    c-0.12-0.01-0.24-0.02-0.34-0.02c-0.12,0-0.22,0.01-0.34,0.02V34.81"></path>		<path id="path13834" class="st0" d="M443.62,37.98c-0.85,0.08-1.6-0.53-1.68-1.38c-0.01-0.08-0.01-0.16-0.01-0.24    c0-0.9,0.74-1.64,1.64-1.64c0.05,0,0.1,0,0.15,0.01c0.84-0.08,1.58,0.53,1.67,1.37c0.01,0.08,0.01,0.16,0,0.24    c0,0.91-0.74,1.64-1.65,1.64C443.7,37.98,443.66,37.98,443.62,37.98z M442.69,36.49c0,0.59,0.28,1.21,0.95,1.21    c0.69,0,1.01-0.7,1.01-1.45c0-0.58-0.28-1.25-0.97-1.25C443.06,35,442.69,35.48,442.69,36.49"></path>		<path id="path13836" class="st0" d="M447.08,37.92c-0.1-0.01-0.22-0.02-0.33-0.02c-0.12,0-0.22,0.01-0.34,0.02v-2.78    c-0.28,0-0.56,0.02-0.84,0.06c0.01-0.06,0.02-0.13,0.02-0.19c0-0.06,0-0.13-0.02-0.19h2.32c0,0.06-0.02,0.13-0.02,0.19    c0,0.07,0.02,0.13,0.02,0.19c-0.27-0.04-0.54-0.06-0.81-0.06L447.08,37.92"></path>		<path id="path13838" class="st0" d="M450.3,34.81c0,0.06-0.02,0.13-0.02,0.19s0.02,0.13,0.02,0.19c-0.35-0.05-0.7-0.07-1.05-0.06    v0.97h0.48c0.18,0,0.37-0.01,0.55-0.04c-0.02,0.13-0.02,0.26,0,0.39c-0.18-0.03-0.37-0.04-0.55-0.04h-0.48v1.15    c0.35,0,0.7-0.02,1.05-0.06c0,0.06-0.02,0.13-0.02,0.19c0,0.06,0.02,0.13,0.02,0.19h-1.72v-3.08H450.3"></path>		<path id="path13840" class="st0" d="M451.85,37.57c0.35,0,0.69-0.02,1.03-0.06c-0.02,0.06-0.03,0.13-0.03,0.19    c0,0.07,0.01,0.13,0.03,0.19h-1.72v-3.08c0.12,0.01,0.22,0.02,0.34,0.02c0.12,0,0.22-0.01,0.34-0.02L451.85,37.57"></path>		<path id="path13842" class="st0" d="M498.22,27.83c-0.01-0.54,0.42-0.99,0.97-1c0.54-0.01,0.99,0.42,1,0.97    c0.01,0.54-0.42,0.99-0.97,1c0,0-0.01,0-0.01,0c-0.53,0.01-0.97-0.41-0.98-0.94C498.22,27.84,498.22,27.84,498.22,27.83z     M499.2,28.63c0.44,0,0.8-0.36,0.8-0.8s-0.36-0.8-0.8-0.8l0,0c-0.44,0-0.8,0.36-0.8,0.8S498.75,28.63,499.2,28.63z M498.99,28.39    h-0.16v-1.11h0.41c0.26,0,0.4,0.1,0.4,0.32c0.01,0.16-0.11,0.3-0.27,0.31c-0.01,0-0.01,0-0.02,0l0.33,0.49h-0.19l-0.29-0.48h-0.21    L498.99,28.39z M499.2,27.76c0.14,0,0.28-0.01,0.28-0.18c0-0.14-0.12-0.16-0.24-0.16h-0.24v0.34H499.2"></path>	</g></g><g id="g10" transform="translate(0 0)">	<g id="g12" transform="translate(0 0)">		<path id="path14" class="st0" d="M648,32.38c3.4,0,4.46-2.35,5.17-5.17h-1.6c-2.21,0-5.88,0.38-5.88,3.33    C645.7,31.77,646.85,32.38,648,32.38 M652.46,32.62h-0.07c-1.56,1.97-3.13,3.1-5.64,3.1c-3.16,0-5.4-1.77-5.4-5    c0-5.78,6.46-6.22,10.74-6.22h1.6c0.12-0.49,0.16-0.99,0.14-1.5c0-1.77-1.9-2.28-3.5-2.28c-1.99,0.02-3.95,0.49-5.75,1.36    l0.65-3.64c1.91-0.69,3.92-1.04,5.95-1.05c3.5,0,6.8,1.29,6.8,5.41c0,2.35-1.74,9.21-2.14,12.51h-3.84L652.46,32.62"></path>		<path id="path16" class="st0" d="M534.34,17.78h3.3l0.78-3.6l4.9-1.6l-1.12,5.2h4.08l-0.71,3.33h-4.08l-1.66,7.65    c-0.13,0.56-0.2,1.13-0.2,1.7c-0.05,0.89,0.63,1.65,1.52,1.7c0.07,0,0.14,0,0.21,0c0.76,0,1.51-0.14,2.21-0.41l-0.78,3.54    c-0.8,0.22-1.62,0.36-2.45,0.41c-3.09,0-5.27-1.23-5.27-4.59c0.04-1.38,0.24-2.74,0.58-4.08l1.29-5.92h-3.3L534.34,17.78"></path>		<path id="path18" class="st0" d="M549.81,10.23h4.56l-0.95,4.35h-4.56L549.81,10.23z M548.15,17.78h4.56l-3.74,17.51h-4.56    L548.15,17.78"></path>		<path id="path20" class="st0" d="M566.46,21.79c-1-0.61-2.16-0.91-3.33-0.88c-3.64,0-5.68,3.4-5.68,6.7    c0,2.28,0.75,4.56,3.88,4.56c1.28-0.02,2.55-0.33,3.71-0.88l-0.51,3.61c-1.38,0.61-2.88,0.88-4.39,0.82    c-4.52,0-7.45-3.03-7.45-7.55c0-6.12,4.05-10.78,10.33-10.78c1.54,0.01,3.08,0.24,4.56,0.68L566.46,21.79"></path>		<path id="path22" class="st0" d="M571.46,9.79h4.56l-3.03,14.35h0.07l6.36-6.36h5.92l-8.4,7.99l5.27,9.52h-5.14l-4.52-9.28h-0.07    l-1.97,9.28h-4.45L571.46,9.79"></path>		<path id="path24" class="st0" d="M601.76,17.78h3.3l0.78-3.6l4.9-1.6l-1.12,5.2h4.08l-0.72,3.33h-4.08l-1.66,7.65    c-0.13,0.56-0.2,1.13-0.2,1.7c-0.05,0.89,0.63,1.65,1.52,1.7c0.07,0,0.14,0,0.21,0c0.76,0,1.5-0.14,2.21-0.41l-0.78,3.54    c-0.8,0.22-1.62,0.35-2.45,0.41c-3.09,0-5.27-1.23-5.27-4.59c0.04-1.38,0.24-2.74,0.58-4.08l1.29-5.92h-3.3L601.76,17.78"></path>		<path id="path26" class="st0" d="M600.24,24.03c0-4.45-2.86-6.66-7.17-6.66c-5.75,0-9.96,5.24-9.96,10.68    c0,5.2,3.4,7.65,8.43,7.65c1.9-0.05,3.78-0.39,5.58-0.99l0.58-3.61c-1.68,0.81-3.51,1.24-5.37,1.26c-2.91,0-4.62-1.04-4.83-3.79    l0,0c-0.01-0.16-0.02-0.32-0.02-0.48c0-0.03,0-0.07,0-0.1c0-0.02,0-0.03,0-0.05l0,0c0.03-1.19,0.28-2.37,0.74-3.47    c0.88-2.23,2.11-3.77,4.8-3.77c1.9,0,2.89,1.05,2.89,2.92c0,0.4-0.03,0.8-0.1,1.19h-6.24c-0.32,1.01-0.48,2.07-0.48,3.13h10.72    C600.08,26.66,600.22,25.35,600.24,24.03"></path>		<path id="path28" class="st0" d="M615.66,19.71c0.13-0.68,0.27-1.39,0.37-1.94h4.26l-0.41,2.35h0.07    c1.22-1.76,3.23-2.79,5.37-2.75c2.07,0,4.22,1.22,4.45,3.33h0.07c1.16-2.28,3.71-3.33,6.15-3.33c2.66,0,4.82,2.14,4.86,4.79    c-0.07,1.61-0.33,3.21-0.78,4.76l-1.84,8.37h-4.56l1.84-8.54c0.31-1.23,0.5-2.48,0.58-3.74c0.03-1.14-0.87-2.08-2.01-2.11    c-0.04,0-0.09,0-0.13,0c-3.16,0-3.95,3.67-4.52,6.05l-1.8,8.33h-4.56l1.84-8.54c0.31-1.23,0.5-2.48,0.58-3.74    c0.03-1.14-0.88-2.08-2.02-2.11c-0.04,0-0.08,0-0.13,0c-3.09,0-3.94,3.71-4.52,6.05l-1.8,8.33h-4.56L615.66,19.71"></path>		<path id="path30" class="st0" d="M671.5,21.34c-0.96-0.43-1.99-0.64-3.04-0.64c-1.36,0-3.06,0.37-3.06,1.77    c0,2.21,5.92,3.03,5.92,7.31c0,4.56-3.98,5.92-7.88,5.92c-1.84,0.05-3.66-0.31-5.34-1.06l0.99-3.64c1.3,0.84,2.81,1.31,4.35,1.36    c1.53,0,3.13-0.51,3.13-1.94c0-2.82-5.92-3.1-5.92-7.48c0-4.11,3.98-5.58,7.58-5.58c1.44,0.01,2.87,0.19,4.27,0.54L671.5,21.34"></path>		<path id="path32" class="st0" d="M674.41,17.78h3.3l0.78-3.6l4.89-1.6l-1.12,5.2h4.08l-0.71,3.33h-4.08l-1.66,7.65    c-0.13,0.56-0.2,1.13-0.2,1.7c-0.05,0.89,0.63,1.65,1.53,1.7c0.07,0,0.14,0,0.21,0c0.76,0,1.51-0.14,2.21-0.41l-0.78,3.54    c-0.8,0.22-1.62,0.35-2.45,0.41c-3.1,0-5.27-1.23-5.27-4.59c0.05-1.38,0.24-2.74,0.58-4.08l1.29-5.92h-3.3L674.41,17.78"></path>		<path id="path34" class="st0" d="M705.31,20.12c0.13-0.75,0.27-1.53,0.41-2.35h4.35l-0.61,3.3h0.07c0.82-1.9,3.06-3.71,5.17-3.71    c0.58-0.01,1.17,0.04,1.74,0.17l-0.95,4.45c-0.56-0.18-1.15-0.27-1.74-0.27c-3.23,0-4.79,2.89-5.37,5.71l-1.64,7.85h-4.56    L705.31,20.12"></path>		<path id="path36" class="st0" d="M702.14,24.03c0-4.45-2.86-6.66-7.17-6.66c-5.75,0-9.96,5.24-9.96,10.68    c0,5.2,3.4,7.65,8.43,7.65c1.9-0.05,3.78-0.39,5.58-0.99l0.58-3.61c-1.68,0.81-3.51,1.24-5.37,1.26c-2.92,0-4.62-1.04-4.84-3.79    l0,0c-0.01-0.16-0.02-0.32-0.02-0.48c0-0.03,0-0.07,0-0.1c0-0.02,0-0.03,0-0.05l0,0c0.03-1.19,0.28-2.37,0.74-3.47    c0.87-2.23,2.11-3.77,4.8-3.77c1.9,0,2.89,1.05,2.89,2.92c0,0.4-0.03,0.8-0.1,1.19h-6.24c-0.32,1.01-0.48,2.07-0.49,3.13h10.73    C701.99,26.66,702.14,25.35,702.14,24.03"></path>	</g></g><g id="_6" transform="translate(0)">	<g>		<g id="Group_1463" transform="translate(22.761 1.859)">			<path id="Path_101250" class="st0" d="M798.62,19.76c-0.56-0.02-0.94-0.24-0.98-0.61c-0.09-0.56,0.5-1.2,1.48-1.29     c0.28-0.05,0.56,0.05,0.75,0.25c0.24,0.29,0.27,0.7,0.06,1.02C799.65,19.56,799.15,19.81,798.62,19.76z M766.92,24.27     c0.72-0.37,1.56-0.61,1.68-0.37c0.13,0.26-0.42,0.53-0.97,0.85c-1.5,1.05-2.15,2.94-1.63,4.69c0.6,2.43,3.56,3.88,6.9,3.37     c2.96-0.44,6.72-2.84,5.54-6.73c-0.53-1.42-1.33-2.73-2.35-3.86c-1.07-1.17-1.9-2.53-2.45-4.02c-1.15-3.73,1.2-6.62,5.88-7.32     c3.17-0.47,6.52,1.02,7.24,3.33c0.4,1.58-0.48,3.19-2.02,3.71c-0.47,0.2-0.81,0.18-0.91-0.02s0.08-0.52,0.48-0.77     c0.88-0.62,1.26-1.74,0.92-2.77c-0.32-1.01-1.1-1.82-2.11-2.16c-2.25-0.93-4.84-0.37-6.51,1.4c-0.78,0.9-1.02,2.15-0.63,3.27     c0.57,1.43,1.39,2.74,2.44,3.87c1.18,1.27,2.09,2.77,2.68,4.4c0.55,1.86,0.1,3.87-1.18,5.32c-1.44,1.72-3.81,2.9-6.72,3.33     c-3.99,0.6-8.04-1.31-8.96-4.22C763.58,27.33,764.72,25.46,766.92,24.27L766.92,24.27z M816.15,28.84     c0.16,0.1,0.12,0.45-0.19,0.89c-1.08,1.38-2.73,2.18-4.48,2.16c-1.6,0.15-3.06-0.89-3.46-2.44c-3.24,3.78-8.36,2.98-8.47-0.44     c-2.21,2.88-3.48,2.92-4.41,2.91c-2.2-0.08-2.07-1.94-2.07-1.94c-1.12,0.98-2.37,1.12-2.5,0.96c-0.14-0.18,0.05-0.38,0.53-0.6     c1.48-0.69,2.36-2.12,3.11-3.62c0.36-0.74,2.24-4.44,2.59-5.17h2.08c-0.87,1.82-3.11,6.61-3.11,6.61     c-0.43,1.08-1.26,2.61-0.1,2.75c1.47,0.16,3.13-2.06,4.2-4.33c1.25-2.57,3.29-5.09,6.08-5.09c0.64,0.03,1.24,0.3,1.67,0.76     c0.49,0.49,0.56,1.27,0.16,1.84c-0.56,0.81-1.83,0.88-2.17,0.19c-0.18-0.34-0.02-0.75,0.45-1.01c0.2-0.1,0.4-0.17,0.61-0.23     c-0.03-0.17-0.17-0.57-0.87-0.66c-1.88-0.22-4.43,4.49-4.03,6.77c0.1,0.74,0.65,1.34,1.38,1.52c2.23,0.47,3.86-1.43,5.32-4.53     c1.2-2.48,3.3-4.57,5.78-4.57c0.78-0.11,1.53,0.35,1.79,1.09c0.34,1.26-0.97,3.61-4.87,4.68c-0.14,0.03-0.31,0.07-0.52,0.12     c-0.09,0.14-0.15,0.29-0.2,0.45c-0.28,0.72-0.16,1.54,0.3,2.15c0.43,0.42,1.03,0.63,1.63,0.58c1.06,0.04,2.09-0.37,2.83-1.13     C815.45,29.27,815.97,28.73,816.15,28.84L816.15,28.84z M811.39,25.37c-0.17,0.32-0.32,0.64-0.45,0.97     c2.51-0.56,4.36-2.28,3.98-3.48c-0.11-0.27-0.38-0.43-0.67-0.38C813.11,22.48,811.72,24.62,811.39,25.37L811.39,25.37z      M790.35,21.61c1.81,0.4,2.59,1.86,2.11,3.99c-0.69,3.28-3.95,6.41-6.97,6.06c-0.73-0.06-1.4-0.42-1.85-0.99     c-0.05,0.1-0.17,0.45-0.25,0.6l-1.52,3.19l-1.13,2.42h-2.13l0.68-1.47l3.42-7.39c1.45-3.23,2.97-6.97,2.97-6.97h2.17     c0,0-0.56,1.1-0.64,1.35c0.29-0.19,0.59-0.36,0.91-0.5C788.82,21.6,789.59,21.5,790.35,21.61L790.35,21.61z M790.7,24.86     c0.31-1.29,0.1-2.09-0.61-2.25c-0.91-0.15-1.83,0.16-2.47,0.83c-1.8,1.6-3.25,5.28-2.67,6.74c0.09,0.3,0.34,0.52,0.65,0.58     C787.52,31.19,790.07,27.46,790.7,24.86z M757.94,26.53c-0.97,2.33-1.24,3.42-1,3.94c0.21,0.45,0.81,0.26,1.13,0.15     c1.14-0.53,2.06-1.42,2.63-2.54c0.2-0.32,0.48-0.42,0.6-0.35c0.11,0.07,0.15,0.28,0.05,0.53c-0.49,1.24-2.08,3.66-4.46,3.59     c-1.17,0.01-2.18-0.82-2.39-1.97c-0.13,0.15-0.52,0.51-0.52,0.51c-0.75,0.77-1.7,1.31-2.74,1.55c-1.16,0.27-2.33-0.46-2.6-1.62     c-0.04-0.18-0.06-0.37-0.05-0.56c-0.13,0.14-0.92,0.85-0.92,0.85c-0.92,0.87-2.14,1.35-3.4,1.34c-1.89-0.13-2.38-1.48-2.34-3.1     c-0.77,0.57-1.59,1.05-2.46,1.44c-0.24,0.1-0.76,0.36-0.99,0.24c-0.33-0.21,0.06-0.55,0.33-0.7c1.2-0.84,2.34-1.76,3.41-2.75     c0.17-0.34,0.31-0.7,0.41-1.06c1.07-3.1,4.05-12.26,8.67-12.21c0.5,0,0.98,0.24,1.26,0.66c1.23,1.75-2.28,7.44-7.95,12.06     c-0.01,0.03-1.34,3.12-0.66,3.99c0.14,0.15,0.33,0.25,0.53,0.29c1.82,0.33,3.26-2.02,4.75-4.18c1.67-2.3,3.42-4.63,5.93-4.89     c0.73-0.16,1.48,0.07,2,0.6c0.14,0.17,0.26,0.36,0.37,0.55c0.07-0.21,3.94-8.66,3.94-8.66h2.01L757.94,26.53z M746.25,22.35     c-0.28,0.68-0.54,1.36-0.8,2.04c2.38-1.89,7.12-7.96,6.25-9.07c-0.09-0.11-0.24-0.17-0.38-0.14c-1.7,0.12-3.65,4.13-4.74,6.45     L746.25,22.35z M751.48,30.74c1.87,0.11,4.89-4.97,4.95-7.08c0.02-0.72-0.33-0.9-0.6-0.93c-1.14-0.12-2.4,1.2-3.02,2     c-1.44,1.85-2.62,4.69-2,5.66C750.97,30.61,751.22,30.74,751.48,30.74L751.48,30.74z"></path>		</g>	</g>	<path id="Path_101252" class="st0" d="M761.8,28.32c-3.96,6.27-10.48,9.13-14.56,6.48c-4.04-2.63-4.1-9.88-0.15-16.06   c4.01-6.27,10.53-9.13,14.56-6.48C765.73,14.89,765.8,22.15,761.8,28.32 M760.94,13.13c-3.04-1.87-8.34,1.26-11.75,7.07   c-3.47,5.71-3.78,11.94-0.74,13.81c3.09,1.86,8.37-1.26,11.8-7.06C763.71,21.23,764.02,14.99,760.94,13.13"></path></g></svg>