<svg xmlns="http://www.w3.org/2000/svg" xmlns:xlink="http://www.w3.org/1999/xlink" id="Layer_1" x="0px" y="0px" viewBox="0 0 512 512" style="enable-background:new 0 0 512 512;" xml:space="preserve"><style type="text/css">	.st0{fill:#000000;}</style><g id="Page-1">	<g id="_x30_25---Artboard-Edit">		<path id="Shape" class="st0" d="M477.9,59.7h-128c0-14.1-11.5-25.6-25.6-25.6h-25.6v-8.5c0-14.1-11.5-25.6-25.6-25.6h-34.1    c-14.1,0-25.6,11.5-25.6,25.6v8.5h-25.6c-14.1,0-25.6,11.5-25.6,25.6h-128C15.3,59.7,0,75,0,93.9v264.5    c0,18.9,15.3,34.1,34.1,34.1h25.6v25.6c0,14.1,11.5,25.6,25.6,25.6h73l-12.6,33.7c-2.9,7.9-1.9,16.7,2.9,23.6    c4.8,6.9,12.6,11,21,11H193c10.7,0,20.2-6.6,24-16.6l19.4-51.7h39.4l19.4,51.7c3.8,10,13.3,16.6,24,16.6h23.3    c8.4,0,16.3-4.1,21-11c4.8-6.9,5.9-15.7,2.9-23.6l-12.6-33.7h25.7l3.3,43.4c1.1,14.1,12.8,24.9,26.9,24.9    c14.1,0,25.8-10.9,26.9-24.9l7.3-94.6h34.1c18.9,0,34.1-15.3,34.1-34.1V93.9C512,75,496.7,59.7,477.9,59.7z M230.4,25.6    c0-4.7,3.8-8.5,8.5-8.5h34.1c4.7,0,8.5,3.8,8.5,8.5v8.5h-51.2V25.6z M179.2,59.7c0-4.7,3.8-8.5,8.5-8.5h136.5    c4.7,0,8.5,3.8,8.5,8.5v42.7c0,4.7-3.8,8.5-8.5,8.5H187.7c-4.7,0-8.5-3.8-8.5-8.5V59.7z M201,489.4c-1.3,3.3-4.4,5.5-8,5.5h-23.3    c-2.8,0-5.4-1.4-7-3.7c-1.6-2.3-2-5.2-1-7.9l14.9-39.7h41.5L201,489.4z M350.3,483.4c1,2.6,0.6,5.6-1,7.8c-1.6,2.3-4.2,3.7-7,3.7    H319c-3.6,0-6.7-2.2-8-5.5l-17.1-45.7h41.5L350.3,483.4z M341.3,426.7h-256c-4.7,0-8.5-3.8-8.5-8.5v-25.6h298.7l2.6,34.1H341.3z     M409.6,238.9c-18.6,0.3-33.8-14.5-34.1-33.1c0-8.9,10-30.2,26.9-56.9c1.6-2.4,4.4-3.9,7.3-3.9s5.7,1.5,7.3,3.9    c24.2,38.5,26.8,52.6,26.8,56.9C443.4,224.4,428.2,239.2,409.6,238.9z M415.2,256c7.8,0,14.7,5.3,16.6,12.9l0.7,2.7    c0.1,0.5,0.1,1,0.2,1.5h-46.1c0.1-0.5,0.1-1,0.2-1.5l0.7-2.7c1.9-7.6,8.7-12.9,16.5-12.9H415.2z M409.6,494.9    c-5.2,0-9.5-4-9.9-9.1l-3.9-50.5v-0.1c0-0.1,0-0.1,0-0.2l-10.9-141.7c-0.1-1.1,0-2.2,0-3.2h49.3c0,1.1,0.1,2.2,0,3.2l-14.8,192.4    C419,490.9,414.8,494.9,409.6,494.9L409.6,494.9z M494.9,358.4c0,9.4-7.6,17.1-17.1,17.1h-32.8l6.2-80.8    c0.7-9.1-0.1-18.3-2.3-27.2l-0.7-2.7c-1.7-6.6-5.3-12.6-10.5-17.2c14.2-9.1,22.9-24.9,23-41.8c0-4.8,0-19.2-29.5-66    c-4.7-7.4-12.9-11.9-21.7-11.9c-8.8,0-17,4.5-21.7,11.9c-19.6,31-29.5,53.2-29.5,66c0.1,16.9,8.7,32.7,23,41.8    c-5.1,4.5-8.8,10.5-10.5,17.1l-0.7,2.7c-2.2,8.9-3,18.1-2.3,27.2l6.2,80.8h-340c-9.4,0-17.1-7.6-17.1-17.1V93.9    c0-9.4,7.6-17.1,17.1-17.1h128v25.6c0,14.1,11.5,25.6,25.6,25.6h136.5c14.1,0,25.6-11.5,25.6-25.6V76.8h128    c9.4,0,17.1,7.6,17.1,17.1L494.9,358.4z"></path>		<path id="Shape_1_" class="st0" d="M460.8,93.9h-85.3c-4.7,0-8.5,3.8-8.5,8.5c0,4.7,3.8,8.5,8.5,8.5h85.3v42.7    c0,4.7,3.8,8.5,8.5,8.5c4.7,0,8.5-3.8,8.5-8.5v-42.7C477.9,101.5,470.2,93.9,460.8,93.9z"></path>		<path id="Shape_2_" class="st0" d="M315.7,341.3H51.2V110.9h85.3c4.7,0,8.5-3.8,8.5-8.5c0-4.7-3.8-8.5-8.5-8.5H51.2    c-9.4,0-17.1,7.6-17.1,17.1v230.4c0,9.4,7.6,17.1,17.1,17.1h264.5c4.7,0,8.5-3.8,8.5-8.5C324.3,345.2,320.4,341.3,315.7,341.3z"></path>		<path id="Shape_3_" class="st0" d="M110.9,168v82.1c0,7.8,4,15.1,10.6,19.3l-18.2,33.7c-1.4,2.6-1.4,5.8,0.2,8.4    c1.5,2.6,4.3,4.2,7.3,4.2h102.8c19.5,12.2,44.6,11.2,62.9-2.8c18.4-13.9,26.2-37.7,19.7-59.8s-26-37.9-48.9-39.6V168    c0-12.7-10.3-22.9-23-23h-90.6C121.2,145.1,110.9,155.3,110.9,168L110.9,168z M170.7,214.3l20,37c-5.4,15.9-3.2,33.3,5.9,47.4    h-71.3L170.7,214.3z M281.6,268.8c0,21.2-17.2,38.4-38.4,38.4s-38.4-17.2-38.4-38.4s17.2-38.4,38.4-38.4    C264.4,230.4,281.6,247.6,281.6,268.8L281.6,268.8z M230.4,168v46.9c-11.7,2.8-22.3,9.3-30,18.6l-22.3-41.3    c-1.5-2.8-4.4-4.5-7.5-4.5c-3.1,0-6,1.7-7.5,4.5l-33.5,62.1c-1.1-1.1-1.7-2.6-1.7-4.2V168c0-3.2,2.6-5.9,5.9-5.9h90.6    C227.8,162.1,230.4,164.8,230.4,168L230.4,168z"></path>	</g></g></svg>