<svg xmlns="http://www.w3.org/2000/svg" xmlns:xlink="http://www.w3.org/1999/xlink" id="Layer_2_1_" x="0px" y="0px" viewBox="0 0 512 512" style="enable-background:new 0 0 512 512;" xml:space="preserve"><style type="text/css">	.st0{fill:#000000;}</style><path class="st0" d="M413.5,177.5l-21.5-8V91.8l-88-29.3l-88,29.3v40.9l-39.5-13.1L120,138.3v31.2l-21.5,8l-45.8,82.4L96,278.2v94.6  L256,457l160-84.2v-94.6l43.4-18.2L413.5,177.5z M376,187.1l-64,23.6v-80.4l64-21.3V187.1z M256.6,231.1l-23.9-8.8l-0.8-0.2v-113  l64,21.3v86.2L256.6,231.1z M184,162.6l32-11.8v66.5l-32-11.8V162.6z M303.6,79.2l55.1,18.4L303.6,116l-55.1-18.4L303.6,79.2z   M176,136.4l17.8,5.9l-21.6,8l-18.9-6.3L176,136.4z M136,155.1l32,10.6v33.4l-32-11.8V155.1z M75.4,252.1l32.3-58.2l137.2,50.6  l-32.7,65.3L75.4,252.1z M112,284.9l107.8,45.4l28.2-56.4v160.8l-136-71.5V284.9z M400,363.2l-136,71.5V273.9l28.2,56.4L400,284.9  V363.2z M299.8,309.7l-32.7-65.3l137.2-50.6l32.3,58.2L299.8,309.7z"></path></svg>