<svg xmlns="http://www.w3.org/2000/svg" xmlns:xlink="http://www.w3.org/1999/xlink" id="Layer_1" x="0px" y="0px" viewBox="0 0 512 512" style="enable-background:new 0 0 512 512;" xml:space="preserve"><style type="text/css">	.st0{fill-rule:evenodd;clip-rule:evenodd;fill:#000000;}</style><path class="st0" d="M176.2,272.3c-3.5,0-6.4-2.9-6.4-6.4s2.9-6.4,6.4-6.4l38.6,0c3.5,0,6.4,2.9,6.4,6.4s-2.9,6.4-6.4,6.4  L176.2,272.3z M176.2,247.6c-3.5,0-6.4-2.9-6.4-6.4s2.9-6.4,6.4-6.4l38.6,0c3.5,0,6.4,2.9,6.4,6.4s-2.9,6.4-6.4,6.4L176.2,247.6z   M238.4,94.4v43.2l12.6-15.3c0.3-0.3,0.6-0.7,0.9-0.9c2.7-2.2,6.7-1.9,9,0.8l12.7,15.4V94.4L238.4,94.4L238.4,94.4z M289.5,391.5  h-67v26.7h67V391.5z M57.9,367.3c-3.5,0-6.4-2.9-6.4-6.4s2.9-6.4,6.4-6.4l1.6,0c3.5,0,6.4,2.9,6.4,6.4s-2.9,6.4-6.4,6.4L57.9,367.3z   M303.9,378.8l-0.3-0.3c-2.8-3.1-4.8-6.7-5.7-10.5c-1-3.8-1-7.9-0.1-11.9l3.6-15.6H28.8v38.3H303.9z M352.7,418.3l-13.9-2.9h0  c-1.3-0.3-2.5-0.9-3.4-2l-19.9-21.9h-13.2v26.7L352.7,418.3L352.7,418.3L352.7,418.3z M369.5,453l-6.9-21.9H148  c-3.2,0-6.1,1.3-8.2,3.4c-2.1,2.1-3.4,5-3.4,8.2s1.3,6.1,3.4,8.2c2.1,2.1,5,3.4,8.2,3.4l216.1,0c1.6,0,3.1-0.3,4.5-0.9  C368.8,453.3,369.2,453.1,369.5,453L369.5,453L369.5,453z M477.7,391.5h11c1.9,0,3.7-0.8,5.1-2l0.1-0.1c1.3-1.3,2.2-3.2,2.2-5.2  V42.6c0-2-0.8-3.9-2.2-5.2s-3.2-2.2-5.2-2.2H23.4c-2,0-3.8,0.8-5.2,2.2l0,0c-1.3,1.3-2.2,3.2-2.2,5.2v341.5c0,2,0.8,3.9,2.2,5.2  c1.3,1.3,3.2,2.2,5.2,2.2h186.3v26.7H148c-6.7,0-12.8,2.7-17.2,7.2c-4.4,4.4-7.2,10.5-7.2,17.2s2.7,12.8,7.2,17.2s10.5,7.2,17.2,7.2  H364c3.2,0,6.4-0.7,9.3-1.9l2.2,7.1c1.1,3.4,4.6,5.2,8,4.2c0.2-0.1,0.4-0.1,0.6-0.2L491.2,439c3.3-1.2,5.1-4.8,3.9-8.1  c-0.1-0.3-0.2-0.6-0.4-0.8L477.7,391.5L477.7,391.5L477.7,391.5z M469.5,340.5h13.7v38.3H472l-6.1-13.7c2.2-6.8,3.5-13.8,3.6-21.1  C469.6,342.8,469.6,341.7,469.5,340.5L469.5,340.5L469.5,340.5z M308.4,285.5L294.3,245c-3.7-10.6-0.6-19.4,5.3-24.9  c2.3-2.1,5-3.7,7.9-4.8c2.9-1,6.1-1.5,9.2-1.2c8.1,0.7,15.9,5.6,19.6,16.3l7.8,22.3l0.2-0.2c2.1-2,4.6-3.5,7.3-4.5V97.8  c0-0.9-0.4-1.7-1-2.4s-1.4-1-2.4-1l-61.8,0v60.9c0,3.5-2.9,6.4-6.4,6.4c-2.1,0-4-1-5.1-2.6L256,136.3l-19.1,23.1  c-2.2,2.7-6.3,3.1-9,0.8c-1.5-1.3-2.3-3.1-2.3-4.9l0,0V94.4l-61.8,0c-0.9,0-1.7,0.4-2.4,1c-0.6,0.6-1,1.4-1,2.4v184.4  c0,0.9,0.4,1.7,1,2.4c0.6,0.6,1.4,1,2.4,1L308.4,285.5L308.4,285.5z M314.6,315.3c1.2-0.5,2.5-0.9,3.8-1.1l-5.5-15.9h-149  c-4.4,0-8.5-1.8-11.4-4.7s-4.7-7-4.7-11.4V97.8c0-4.4,1.8-8.5,4.7-11.4c2.9-2.9,6.9-4.7,11.4-4.7l184.4,0c4.4,0,8.5,1.8,11.4,4.7  s4.7,6.9,4.7,11.4v149.5c5,1.2,9.7,4.2,13,9.3c0.3-0.3,0.5-0.5,0.8-0.8c2.2-2.1,4.9-3.7,7.8-4.7c2.9-1,6-1.4,9-1.2  c6.1,0.5,12.1,3.5,16.2,9.7c0.3-0.3,0.5-0.6,0.8-0.8c2.2-2.1,4.9-3.7,7.8-4.7c2.9-1,6-1.4,9-1.2c7.9,0.7,15.7,5.6,19.3,16l17.4,50.1  c1,2.9,1.8,5.8,2.5,8.7h15.3V48H28.8v279.7h275.6l0.1-0.6l0.1-0.3c0.2-0.8,0.4-1.5,0.7-2.3C307.1,320.2,310.5,317.1,314.6,315.3  L314.6,315.3L314.6,315.3z M333.5,318.9l-9.9-28.6c-0.1-0.3-0.2-0.7-0.3-1l-16.8-48.5c-1.8-5.1-0.6-9.1,1.9-11.4  c1-0.9,2.2-1.6,3.4-2.1c1.2-0.4,2.6-0.6,4-0.5c3.4,0.3,6.8,2.6,8.6,7.7l26.2,75.4c1.2,3.3,4.8,5.1,8.1,3.9s5.1-4.8,3.9-8.1l-11.5-33  c-1.7-4.9-0.5-8.7,1.9-11c1-0.9,2.1-1.6,3.3-2c0.6-0.2,1.3-0.4,2-0.4c0.2,0,0.4,0,0.5,0c0.4,0,0.9,0,1.3,0c3.3,0.3,6.5,2.5,8.3,7.5  l13.6,39.1c1.2,3.3,4.8,5.1,8.1,3.9s5.1-4.8,3.9-8.1l-9-25.8c-1.7-4.9-0.5-8.7,1.9-11c1-0.9,2.1-1.6,3.3-2c1.2-0.4,2.5-0.6,3.8-0.5  c3.3,0.3,6.5,2.5,8.3,7.5l14.8,42.6c1.2,3.3,4.8,5.1,8.1,3.9c3.3-1.2,5.1-4.8,3.9-8.1l-10.2-29.4c-1.7-4.9-0.5-8.7,1.9-11  c1-0.9,2.1-1.6,3.3-2c1.2-0.4,2.5-0.6,3.8-0.5c3.3,0.3,6.5,2.5,8.3,7.5l17.4,50.1c2.5,7.1,3.5,13.9,3.4,20.5  c-0.1,6.6-1.5,13.1-3.7,19.5l0,0c-0.5,1.5-0.5,3.1,0.2,4.7l8.5,19.2c0.1,0.4,0.3,0.8,0.5,1.2l18.2,40.9l-94.8,32.9l-15.8-50l0,0  c-0.7-2.1-2.5-3.8-4.8-4.3l-21.8-4.5l-20-22c-0.2-0.3-0.5-0.6-0.8-0.9l-9.5-10.5c-1.4-1.6-2.4-3.3-2.8-5.2c-0.5-1.8-0.5-3.8,0-5.9  L317,330l0.1-0.2c0-0.2,0.1-0.4,0.1-0.5c0.4-0.9,1.3-1.7,2.4-2.1c1-0.4,2-0.6,3.1-0.6l12.6,36.1c1.2,3.3,4.8,5.1,8.1,3.9  s5.1-4.8,3.9-8.1l-13.7-39.3C333.6,319.1,333.5,319,333.5,318.9L333.5,318.9L333.5,318.9z"></path></svg>