<svg xmlns="http://www.w3.org/2000/svg" xmlns:xlink="http://www.w3.org/1999/xlink" id="Layer_1" x="0px" y="0px" viewBox="0 0 512 512" style="enable-background:new 0 0 512 512;" xml:space="preserve"><style type="text/css">	.st0{fill-rule:evenodd;clip-rule:evenodd;fill:#000000;}</style><path class="st0" d="M489,386.5H23c-3.9,0-7-3.1-7-7v-17.4h480v17.4C496,383.4,492.9,386.5,489,386.5L489,386.5z M300.9,443.6h-89.9  l8.8-41.1h72.3L300.9,443.6L300.9,443.6z M339.2,464.2v4.6H172.8v-4.6c0-2.5,2.1-4.6,4.6-4.6h157.2  C337.2,459.7,339.2,461.7,339.2,464.2L339.2,464.2z M23,43.1h466c3.9,0,7,3.1,7,7v296H16v-296C16,46.3,19.1,43.1,23,43.1z M489,27.1  H23c-12.7,0-23,10.3-23,23v329.4c0,12.7,10.3,23,23,23h180.5l-8.8,41.1h-17.3c-11.4,0-20.6,9.2-20.6,20.6v12.6c0,4.4,3.6,8,8,8  h182.5c4.4,0,8-3.6,8-8v-12.6c0-11.4-9.2-20.6-20.6-20.6h-17.3l-8.8-41.1H489c12.7,0,23-10.3,23-23V50.1  C512,37.4,501.7,27.1,489,27.1L489,27.1z"></path></svg>